<svg xmlns="http://www.w3.org/2000/svg" width="1041.3484pt" height="225pt" viewBox="0 0 1041.3484 225"><path d="M489.493 112.76v36.023h-13.888v-30.375H411.21v-9.977h32.593V93.224h-37.45V83.208h68.818V56.58H411.21V46.572h73.388c4.554.147 4.46 4.469 4.46 4.469v32.167h5.33v10.016h-36.76v15.168h27.862c1.567 0 4.003 1.59 4.003 4.368M583.635 138.858h-43.549v-10.746h43.549zM512.582 92.33c0 4.47 3.833 4.772 4.33 4.772h66.723v21.017h-43.51v-10.318h-13.841v36.83c0 2.242 1.955 4.15 4.298 4.15h66.948V44.546h-13.895v42.586h-57.22V76.363h39.205V50.9c0-2.809-2.46-4.345-4.112-4.345h-48.926v10.008h39.189v9.846h-39.189v25.913M661.651 109.177c9.14 0 16.55 7.487 16.55 16.65 0 9.163-7.41 16.58-16.55 16.58-9.155 0-16.548-7.417-16.548-16.58 0-9.163 7.393-16.65 16.548-16.65m.063-10.21c-16.697 0-30.344 11.971-30.344 26.728 0 14.702 13.647 26.666 30.344 26.666 16.742 0 30.328-11.964 30.328-26.666 0-14.757-13.586-26.728-30.328-26.728M701.35 50.925v34.331h5.011v9.993h-89.735v-9.993h34.177V67.729h13.825v17.527h22.88v-28.73h-66.66v-9.985h76.258c2.187 0 4.243 1.854 4.243 4.384M871.34 109.528c9.116 0 16.587 7.494 16.587 16.634 0 9.17-7.471 16.595-16.588 16.595-9.132 0-16.525-7.424-16.525-16.595 0-9.14 7.393-16.634 16.525-16.634m.086-10.203c-16.697 0-30.344 11.964-30.344 26.705 0 14.718 13.647 26.69 30.344 26.69 16.696 0 30.281-11.972 30.281-26.69 0-14.741-13.585-26.705-30.281-26.705M911.087 51.274v34.332h4.989v9.993h-89.759v-9.993h34.177V68.079h13.825v17.527h22.919v-28.73H830.56v-9.985h76.204c2.227 0 4.322 1.854 4.322 4.383M750.32 75.522c-6.572 0-11.855-5.757-11.855-12.794 0-7.06 5.283-12.824 11.855-12.824 6.587 0 11.924 5.764 11.924 12.824 0 7.037-5.337 12.794-11.924 12.794m-.256 9.784c13.957 0 25.339-10.164 25.339-22.663 0-12.483-11.382-22.64-25.34-22.64-13.957 0-25.339 10.157-25.339 22.64 0 12.499 11.382 22.663 25.34 22.663"/><path d="M747.253 148.762h59.476V44.542h-13.872V88.33H721.89v10.125h21.212v14.097h13.849V98.456h35.906v8.487h-21.46v10.024h21.46v21.763h-35.906v-19.908H743.1v25.72c0 1.946 1.6 4.22 4.152 4.22M1019.78 139.003h-56.947v-29.917H948.97v35.697c0 1.94 1.575 4.198 4.127 4.198h66.685Z"/><path d="M1005.869 139.424h13.95V45.22h-13.95z"/><path d="M1009.19 73.26h32.158v-9.993h-32.159ZM948.966 85.66V56.814h39.189v-10h-13.857v.023h-39.173v44.045c0 4.43 3.84 4.81 4.275 4.81h66.785V85.66Z"/><path fill="#727171" d="M806.324 190.884h3.406c3.763 0 5.982-2.071 5.982-5.376 0-3.12-1.916-5.082-5.578-5.082h-3.81Zm4.136 4.345h-4.136v15.238h-4.39v-34.37h7.215c5.485.015 10.792 1.07 10.792 9.333 0 4.174-1.808 7.231-5.059 7.89h.062c1.102.512 1.226 1.692 1.97 3.453l5.052 13.694h-4.64l-5.291-13.927s-.404-1.311-1.575-1.311M465.24 190.884h3.398c3.77 0 5.99-2.071 5.99-5.376 0-3.12-1.878-5.082-5.563-5.082h-3.825Zm4.135 4.345h-4.135v15.238h-4.43v-34.37h7.239c5.493.015 10.823 1.07 10.823 9.333 0 4.174-1.824 7.231-5.051 7.89h.023c1.133.512 1.203 1.692 1.994 3.453l5.028 13.694h-4.601l-5.315-13.927s-.388-1.311-1.575-1.311M918.99 190.884h3.383c3.786 0 6.005-2.071 6.005-5.376 0-3.12-1.9-5.082-5.578-5.082h-3.81Zm4.136 4.345h-4.136v15.238h-4.383v-34.37h7.184c5.524.015 10.816 1.07 10.816 9.333 0 4.174-1.808 7.231-5.074 7.89h.085c1.11.512 1.218 1.692 1.97 3.453l5.051 13.694h-4.631l-5.3-13.927s-.395-1.311-1.582-1.311M566.293 203.698v-27.605h4.415v34.363h-5.866l-12.25-27.651h-.086v27.65h-4.399v-34.362h4.004c1.512 0 2.218.613 2.862 2.049zM684.188 203.698v-27.605h4.368l-.047 34.363h-5.803l-12.197-27.651h-.14v27.65h-4.367v-34.362h3.98c1.551 0 2.219.613 2.863 2.049zM757.428 192.121h4.027c2.413 0 5.524-1.52 5.524-6.06 0-4.336-3.67-5.857-6.122-5.857h-3.429Zm-4.384-16.03h7.759c5.656 0 10.389 2.204 10.389 10.04 0 7.643-4.795 10.04-9.8 10.04h-3.964v14.268h-4.384zM826.424 176.075h4.368v15.175l11.56-15.113h5.322l-11.754 16.2 11.669 18.1h-5.198l-11.6-16.797v16.797h-4.367ZM406.335 176.075h4.391v15.175l11.553-15.175h5.291l-11.739 16.262 11.67 18.1h-5.152l-11.623-16.797v16.797h-4.39ZM726.691 206.467v-30.382h-4.407v31.67c0 1.474.877 2.708 1.8 2.708h13.803v-3.996ZM620.457 176.075H599.23v4.065h8.387v30.297h4.39V180.14h8.45ZM625.089 210.477h4.414v-34.37h-4.414zM965.245 210.477h4.407v-34.37h-4.407ZM485.506 207.786c0 1.389.791 2.677 1.823 2.677h14.222v-3.965h-11.592v-11.793H501v-4.104h-11.04v-10.458h11.592v-4.05h-16.045ZM891.023 207.786c0 1.389.768 2.677 1.815 2.677h14.19v-3.965h-11.575v-11.793h11.04v-4.104h-11.04v-10.458h11.575v-4.05h-16.005ZM1002.641 207.786c0 1.389.792 2.677 1.8 2.677h14.206v-3.965h-11.614v-11.793h11.079v-4.104h-11.08v-10.458h11.615v-4.05h-16.006ZM700.471 197.09l4.904-14.377 4.903 14.377Zm7.068-21.018h-4.306l-11.746 34.37h4.345l3.204-9.31h12.654l3.228 9.31h4.383zM513.151 197.09l4.927-14.377 4.934 14.377Zm7.084-21.018h-4.299l-11.73 34.37h4.36l3.212-9.31h12.608l3.227 9.31h4.415zM583.598 197.09l4.88-14.377 4.926 14.377Zm7.044-21.018h-4.306l-11.707 34.37h4.33l3.25-9.31h12.576l3.236 9.31h4.391zM778.786 197.09l4.88-14.377 4.957 14.377Zm7.068-21.018h-4.306l-11.755 34.37h4.376l3.228-9.31h12.6l3.227 9.31h4.376zM648.055 205.933c-5.036 0-9.055-5.602-9.055-12.515 0-6.944 4.02-12.56 9.055-12.56 4.988 0 9.046 5.616 9.046 12.56 0 6.913-4.058 12.515-9.046 12.515m0-30.266c-7.41 0-13.337 7.944-13.337 17.79 0 9.776 5.927 17.744 13.337 17.744 7.355 0 13.337-7.968 13.337-17.744 0-9.846-5.982-17.79-13.337-17.79M441.76 205.933c-5.028 0-9.078-5.602-9.078-12.515 0-6.944 4.05-12.56 9.078-12.56 4.95 0 9.054 5.616 9.054 12.56 0 6.913-4.104 12.515-9.054 12.515m0-30.266c-7.402 0-13.353 7.944-13.353 17.79 0 9.776 5.951 17.744 13.353 17.744 7.355 0 13.352-7.968 13.352-17.744 0-9.846-5.997-17.79-13.352-17.79M949.418 201.167s-1.257 4.926-1.412 5.524c0-1.024-1.07-5.524-1.07-5.524l-6.89-25.13h-3.88l10.086 35.014h3.701l10.528-35.014h-3.832ZM980.76 177.99c-2.032 1.365-3.576 3.375-4.623 5.966-1.087 2.568-1.622 5.648-1.622 9.116 0 3.197.466 6.23 1.404 8.977.947 2.777 2.374 4.934 4.182 6.432 1.839 1.443 4.236 2.21 7.138 2.21 2.793 0 5.206-.985 7.138-2.932 1.94-1.885 3.352-4.663 4.065-8.302l-3.67-1.396-.147-.047-.054.202c-.497 2.762-1.404 4.834-2.747 6.145-1.31 1.412-2.932 2.157-4.895 2.157-1.544 0-3.08-.574-4.43-1.568-1.335-1-2.343-2.56-2.98-4.624-.66-1.978-1-4.469-1-7.27 0-2.156.31-4.243.83-6.253.55-2.025 1.482-3.615 2.824-4.849 1.342-1.18 3.041-1.745 5.027-1.745 1.754 0 3.173.504 4.33 1.575 1.156 1.062 2.032 2.8 2.63 5.136l3.716-.838c-.59-3.36-1.9-5.804-3.74-7.534-1.862-1.714-4.135-2.576-6.866-2.576-2.359 0-4.577.69-6.51 2.018M869.26 177.145c-1.498.807-2.63 1.924-3.399 3.406a10.48 10.48 0 0 0-1.18 4.818c0 1.582.358 3.01.978 4.213.629 1.295 1.59 2.374 2.894 3.188.962.675 2.654 1.35 5.136 2.095 2.615.792 4.027 1.288 4.648 1.598 1.11.543 1.885 1.187 2.335 1.909.458.714.683 1.59.683 2.553 0 .985-.225 1.877-.706 2.692-.481.814-1.226 1.497-2.188 1.986-1.032.496-2.157.714-3.468.714-1.451 0-2.817-.303-3.973-.962-1.21-.629-2.056-1.443-2.591-2.49-.559-1.025-.931-2.336-1.055-3.98v-.195l-3.654.396v.201c.015 2.258.527 4.291 1.45 6.037.97 1.807 2.266 3.15 3.903 4.026 1.645.877 3.67 1.327 6.067 1.327 1.885 0 3.616-.45 5.144-1.319 1.56-.884 2.739-2.087 3.53-3.67.854-1.66 1.28-3.328 1.28-5.128 0-1.823-.41-3.406-1.156-4.841-.752-1.35-1.9-2.592-3.468-3.406-1.086-.637-3.072-1.343-5.865-2.196-2.801-.753-4.578-1.505-5.245-2.266-.636-.737-.931-1.66-.931-2.746 0-1.311.45-2.42 1.381-3.336.931-.947 2.428-1.42 4.516-1.42 1.978 0 3.49.535 4.484 1.583.993.993 1.621 2.529 1.769 4.538l.039.194 3.724-.333-.055-.202c-.07-2.002-.473-3.747-1.295-5.361-.83-1.544-2.048-2.731-3.546-3.577-1.536-.776-3.313-1.187-5.268-1.187-1.83 0-3.437.388-4.919 1.14"/><path fill="#0b4995" d="M0 0s24.285-6.463 29.861-13.549c0 0 1.451 3.093 5.263 6.457C24.499-1.705 9.008 0 9.008 0Z" style="fill:#0b4994;fill-opacity:1" transform="matrix(7.75851 0 0 -7.75851 .015 119.88)"/><path fill="#9ed1e7" d="M0 0c-6.421-1.602-10.917-4.43-13.929-7.092a32.6 32.6 0 0 0 1.95-1.062S-7.188-1.757 2.155 0z" style="fill:#9ed0e7;fill-opacity:1" transform="matrix(7.75851 0 0 -7.75851 380.638 119.88)"/><path fill="#1374b9" d="M0 0s15.49-1.705 26.118-7.092C29.13-4.43 33.626-1.602 40.046 0Z" style="fill:#1374b9;fill-opacity:1" transform="matrix(7.75851 0 0 -7.75851 69.921 119.88)"/><path fill="#afcf88" d="M0 0c-1.719 1.788-3.144 3.58-3.806 5.116 0 0-8.25-12.436-19.006-14.469h10.228C-6.524-8.165-2.047-2.894 0 0" style="fill:#afce88;fill-opacity:1" transform="matrix(7.75851 0 0 -7.75851 176.987 39.693)"/><path fill="#39a84f" d="M0 0s-9.223 5.945-12.559 11.276c0 0-.43-.777-1.238-1.923C-9.292 4.665-2.763 0-2.763 0Z" style="fill:#3aa84f;fill-opacity:1" transform="matrix(7.75851 0 0 -7.75851 284.06 112.243)"/><path fill="#159a3d" d="M0 0h23.623s-6.532 4.665-11.037 9.353C10.532 6.457 6.06 1.186 0 0" style="fill:#159a3d;fill-opacity:1" transform="matrix(7.75851 0 0 -7.75851 79.363 112.243)"/></svg>